<?xml version="1.0" encoding="UTF-8"?>
<!DOCTYPE svg PUBLIC "-//W3C//DTD SVG 1.1//EN" "http://www.w3.org/Graphics/SVG/1.1/DTD/svg11.dtd">
<!-- Creator: CorelDRAW 2019 (64-Bit) -->
<svg xmlns="http://www.w3.org/2000/svg" xml:space="preserve" width="175px" height="20px" version="1.1" style="shape-rendering:geometricPrecision; text-rendering:geometricPrecision; image-rendering:optimizeQuality; fill-rule:evenodd; clip-rule:evenodd"
viewBox="0 0 175 20"
 xmlns:xlink="http://www.w3.org/1999/xlink">
 <defs>
  <style type="text/css">
   <![CDATA[
    .fil0 {fill:#2C3269;fill-rule:nonzero}
    .fil1 {fill:#AA2231;fill-rule:nonzero}
   ]]>
  </style>
 </defs>
 <g id="Слой_x0020_1">
  <metadata id="CorelCorpID_0Corel-Layer"/>
  <g id="_2697516841952">
   <path class="fil0" d="M8.91 19.12l3.44 -12.14 3.49 12.14 4.12 0 5.16 -18.41 -3.81 0 -3.54 13.65 -3.86 -13.65 -3.1 0 -3.85 13.65 -3.52 -13.65 -3.81 0 5.14 18.41 4.14 0 0 0zm21.94 -7.6l6.97 0 0 -3.42 -6.97 0 0 -3.91 7.63 0 0 -3.48 -11.26 0 0 18.41 11.39 0 0 -3.47 -7.76 0 0 -4.13zm16.6 7.97c1.97,0 3.58,-0.5 4.81,-1.49 1.25,-1.01 1.88,-2.34 1.88,-4.06 0,-1.05 -0.29,-1.98 -0.68,-2.6 -0.35,-0.63 -1.2,-1.29 -1.75,-1.63 -0.26,-0.18 -0.65,-0.36 -1.15,-0.56 -0.51,-0.21 -0.9,-0.37 -1.19,-0.45l-1.26 -0.42c-1.37,-0.41 -2.29,-0.81 -2.78,-1.15 -0.48,-0.36 -0.72,-0.85 -0.72,-1.42 0,-1.08 0.93,-1.85 2.42,-1.85 1.61,0 2.79,0.8 3.53,2.37l3.05 -1.75c-1.27,-2.61 -3.61,-4.14 -6.58,-4.14 -1.65,0 -3.1,0.5 -4.28,1.5 -1.19,0.97 -1.77,2.32 -1.77,3.97 0,1.69 0.6,2.95 1.74,3.8 1.15,0.81 2.16,1.2 3.81,1.7 1.51,0.42 2.53,0.81 3.1,1.19 0.59,0.34 0.88,0.84 0.88,1.49 0,1.14 -0.93,1.95 -2.96,1.95 -2.09,0 -3.52,-0.94 -4.23,-2.81l-3.1 1.82c1.02,2.81 3.57,4.54 7.23,4.54zm7.03 -18.78l0 3.48 4.94 0 0 14.93 3.63 0 0 -14.93 4.97 0 0 -3.48 -13.54 0z"/>
   <path class="fil1" d="M84.33 0.71l-5.26 8.71 -5.29 -8.71 -3.73 0 0 18.41 3.63 0 0 -11.91 5.18 8.52 0.42 0 5.18 -8.54 0 11.93 3.62 0 0 -18.41 -3.75 0 0 0zm22.66 16.02c1.86,-1.86 2.79,-4.13 2.79,-6.81 0,-2.68 -0.93,-4.95 -2.79,-6.79 -1.87,-1.87 -4.13,-2.79 -6.79,-2.79 -2.66,0 -4.92,0.92 -6.78,2.79 -1.85,1.84 -2.76,4.11 -2.76,6.79 0,2.68 0.91,4.95 2.76,6.81 1.86,1.84 4.12,2.76 6.78,2.76 2.66,0 4.92,-0.92 6.79,-2.76zm-11.02 -2.48c-1.14,-1.12 -1.71,-2.57 -1.71,-4.33 0,-1.77 0.57,-3.21 1.71,-4.35 1.13,-1.12 2.55,-1.71 4.23,-1.71 1.69,0 3.1,0.59 4.24,1.71 1.13,1.14 1.71,2.58 1.71,4.35 0,1.76 -0.58,3.21 -1.71,4.33 -1.14,1.14 -2.55,1.69 -4.24,1.69 -1.68,0 -3.1,-0.55 -4.23,-1.69zm13.94 -13.54l0 3.48 4.95 0 0 14.93 3.63 0 0 -14.93 4.97 0 0 -3.48 -13.55 0zm30.02 16.02c1.87,-1.86 2.78,-4.13 2.78,-6.81 0,-2.68 -0.91,-4.95 -2.78,-6.79 -1.88,-1.87 -4.13,-2.79 -6.78,-2.79 -2.66,0 -4.93,0.92 -6.8,2.79 -1.84,1.84 -2.76,4.11 -2.76,6.79 0,2.68 0.92,4.95 2.76,6.81 1.87,1.84 4.14,2.76 6.8,2.76 2.65,0 4.9,-0.92 6.78,-2.76zm-11.03 -2.48c-1.12,-1.12 -1.71,-2.57 -1.71,-4.33 0,-1.77 0.59,-3.21 1.71,-4.35 1.13,-1.12 2.56,-1.71 4.25,-1.71 1.67,0 3.1,0.59 4.22,1.71 1.14,1.14 1.72,2.58 1.72,4.35 0,1.76 -0.58,3.21 -1.72,4.33 -1.12,1.14 -2.55,1.69 -4.22,1.69 -1.69,0 -3.12,-0.55 -4.25,-1.69zm30.4 4.87l-4.08 -6.93c2.13,-0.99 3.54,-3.09 3.54,-5.37 0,-1.69 -0.6,-3.14 -1.78,-4.32 -1.19,-1.19 -2.63,-1.79 -4.34,-1.79l-7.37 0 0 18.41 3.64 0 0 -6.38 2.76 0 3.7 6.38 3.93 0 0 0zm-6.66 -15.02c1.36,0 2.5,1.21 2.5,2.72 0,1.49 -1.14,2.74 -2.5,2.74l-3.73 0 0 -5.46 3.73 0zm14.79 15.39c1.96,0 3.57,-0.5 4.8,-1.49 1.25,-1.01 1.87,-2.34 1.87,-4.06 0,-1.05 -0.28,-1.98 -0.68,-2.6 -0.34,-0.63 -1.19,-1.29 -1.74,-1.63 -0.26,-0.18 -0.65,-0.36 -1.15,-0.56 -0.51,-0.21 -0.9,-0.37 -1.19,-0.45l-1.26 -0.42c-1.37,-0.41 -2.29,-0.81 -2.79,-1.15 -0.47,-0.36 -0.72,-0.85 -0.72,-1.42 0,-1.08 0.93,-1.85 2.43,-1.85 1.61,0 2.78,0.8 3.53,2.37l3.05 -1.75c-1.27,-2.61 -3.61,-4.14 -6.58,-4.14 -1.65,0 -3.11,0.5 -4.28,1.5 -1.2,0.97 -1.77,2.32 -1.77,3.97 0,1.69 0.6,2.95 1.74,3.8 1.15,0.81 2.16,1.2 3.81,1.7 1.5,0.42 2.52,0.81 3.1,1.19 0.59,0.34 0.88,0.84 0.88,1.49 0,1.14 -0.93,1.95 -2.95,1.95 -2.11,0 -3.53,-0.94 -4.24,-2.81l-3.1 1.82c1.02,2.81 3.57,4.54 7.24,4.54l0 0z"/>
  </g>
 </g>
</svg>
